<?xml version="1.0" encoding="utf-8"?>
<!-- Generator: Adobe Illustrator 27.5.0, SVG Export Plug-In . SVG Version: 6.00 Build 0)  -->
<svg version="1.1" id="Layer_1" xmlns="http://www.w3.org/2000/svg" xmlns:xlink="http://www.w3.org/1999/xlink" x="0px" y="0px"
	 viewBox="0 0 4000 4000" style="enable-background:new 0 0 4000 4000;" xml:space="preserve">
<g>
	<rect x="0" style="fill-rule:evenodd;clip-rule:evenodd;fill:#FFFFFF;" width="4000" height="4000"/>
	<path d="M2432.196,3340.435c-0.381,0.17-0.76,0.325-1.133,0.458l-0.76,0.255c-49.73,18.633-110.505,31.208-169.566,30.652
		l-4.033-0.057c-0.913,0.033-1.828,0.01-2.75-0.072c-82.068-2.164-160.545-29.944-203.683-101.432c0-0.275-2.551-4.442-3.028-5.212
		c-1.843-3.283-3.595-6.59-5.278-9.922c-24.131,60.023-89.629,93.383-165.939,107.788c-74.169,14.007-159.605,10.233-224.532-4.107
		c-15.751-3.482-30.214-7.517-42.912-11.995c-24.813-8.753-44.641-21.515-60.208-37.365c-51.953,4.432-94.998-3.358-128.807-24.327
		c-6.5-4.03-12.631-8.517-18.377-13.463c-0.799-0.61-1.57-1.282-2.287-2.018c-26.74-23.99-45.02-58.28-54.54-103.535
		c-8.169-38.797-4.175-77.642,0.417-122.272c7.715-75.015,17.243-167.67-32.651-298.928c-76.016-199.96-2.75-409.846,11.215-446.418
		c-23.792-199.792,55.205-339.038,109.923-409.143c-23.111,3.835-44.126,8.205-55.554,17.617
		c-51.675,42.553-106.592,37.393-106.743,37.38l0.004-0.067c-8.371-0.661-16.006-6.047-19.127-14.433
		c-27.6-74.266-88.854-118.035-137.533-152.81c-33.132-23.67-61.124-43.668-74.462-69.138c-3.713-7.09-6.175-15.032-7.61-23.555
		c-86.845-42.355-141.487-88.81-174.535-133.153c-50.838-68.207-51.41-132.381-38.588-171.458
		c5.377-16.383,13.442-33.307,21.747-50.773c20.112-42.245,42.098-88.45,14.943-108.812c-49.11-36.832-119.037-57.288-128.021-59.82
		c-2.406-0.463-4.735-1.012-6.989-1.668c-18.16-5.263-31.044-16.138-34.185-35.305c-0.879-5.377-0.804-11.193,0.363-17.453
		c2.622-14.089,11.853-30.042,31.668-46.224c48.415-39.557,72.306-36.392,102.51-64.597
		c101.872-95.158,73.394-157.975,251.424-266.456c219.713-133.885,391.985-51.18,477.402-10.172l15.33,7.195
		c56.744,26.395,110.144,11.797,124.583,6.95c171.066-106.318,436.753-183.69,742.12,38.32
		c127.752-60.888,236.984-89.565,333.692-87.435c101.609,2.245,188.57,38.173,267.644,106.215
		c35.848,30.845,62.717,60.255,83.67,87.443c20.98,27.232,35.956,52.115,48.103,74.013c15.794,28.473,28.668,51.207,44.343,69.902
		c14.948,17.825,33.184,32.642,60.567,46.615l-0.039,0.072c14.84,7.573,25.867,16.408,33.124,26.343v0.085
		c8.802,12.062,12.237,25.267,10.357,39.415c-0.968,7.281-3.213,14.415-6.889,20.822l-0.066-0.038
		c-5.614,9.775-14.235,17.962-26.401,22.928l-0.027-0.077c-0.743,0.303-1.499,0.587-2.263,0.865
		c-1.262,0.553-2.594,0.983-3.982,1.295l-0.095,0.028c-3.548,1.01-7.342,1.762-11.382,2.21
		c-30.798,7.3-124.337,39.662-122.093,163.537c8.953,22.643,17.296,48.67,23.59,77.797
		c23.899,110.678-77.467,202.308-118.612,239.485c-3.727,3.368-6.832,6.175-10.054,9.283c-4.043,3.917-12.038,10.435-23.097,19.473
		c-65.732,53.693-249.224,203.57-266.291,348.705c-1.399,12.25-12.469,21.047-24.719,19.648c-10.2-1.167-18.01-9.038-19.521-18.708
		c-0.912-4.843-15.345-73.697-109.664-117.813c-8.66-4.048-21.528-9.842-34.015-15.458c-36.689-16.507-69.798-31.412-96.52-50.055
		c61.891,180.062,48.945,418.28,41.23,560.178c-1.298,23.938-2.47,45.175-3.033,61.327l-0.005,0.252
		c-1.332,37.733-5.593,80.447-10.09,125.447c-13.091,131.225-28.209,282.723,24.212,366.845l3.865,6.28
		c37.691,62.46,58.436,127.435,56.848,185.413c-0.104,3.955-0.316,7.867-0.629,11.75c-0.023,0.543-0.066,1.082-0.136,1.615
		c-4.872,55.357-30.793,103.158-82.37,135.298c-0.775,0.363-1.739,1.048-2.475,1.53l-7.414,4.308
		c-14.433,8.122-30.997,15.785-49.058,22.658L2432.196,3340.435z"/>
	<path style="fill:#FFFFFF;" d="M1459.091,1161.78c-13.007-30.808-81.327-153.373-320.258-66.048
		c-11.58,4.197-24.373-1.785-28.568-13.36c-4.19-11.58,1.785-24.373,13.365-28.568c209.4-76.53,308.416-7.035,351.391,48.525
		c6.479-53.462-9.324-120.082-109.983-165.762c-98.296-44.608-172.672-50.73-232.261-30.765
		c-59.508,19.931-106.153,66.505-148.149,127.03c-22.756,32.807-47.508,57.283-72.34,75.52c-25.071,18.415-50.215,30.5-73.53,38.405
		c-2.726,0.92-7.214,2.282-12.921,3.812c19.21,9.373,39.07,20.688,56.702,33.912c56.438,42.322,26.273,105.705-1.318,163.673
		c-7.78,16.35-15.325,32.205-19.643,45.348c-9.453,28.81-8.231,77.207,31.941,131.108c26.835,36,70.702,74.022,139.502,110.107
		c9.61-63.005,45.029-130.53,45.175-130.805c5.642-10.952,19.102-15.25,30.049-9.61c10.95,5.642,15.25,19.101,9.608,30.053
		c-0.17,0.34-61.852,118.36-38.521,162.907c8.323,15.893,32.376,33.07,60.835,53.41c36.048,25.752,78.37,55.988,112.058,99.528
		c34.054,44.003,34.323,74.39,97.186,32.325c22.493-18.525,54.18-23.603,87.448-28.938c39.505-6.33,81.87-13.123,96.814-45.212
		l0.047-0.095l0.084-0.193l0.096-0.188c23.181-50.065,36.906-89.93,42.86-108.572c-128.845-148.362-89.977-335.358-71.449-424.46
		l0.796-3.804c6.66-32.121,4.483-65.735-0.842-95.188l-1.194,3.223l-0.497,1.313c-6.052,15.973-16.03,51.178-35.031,51.178
		c-12.349,0-22.365-10.015-22.365-22.365c0-6.495,2.995-13.597,7.37-23.952C1455.17,1171.421,1457.077,1166.881,1459.091,1161.78"/>
	<path style="fill:#332C2B;" d="M3263.342,1135.866h0.005H3263.342z"/>
	<path style="fill:#FFFFFF;" d="M2543.139,1370.008c0-75.846-9.179-110.902-19.177-136.138c-0.222-0.507-0.42-1.012-0.608-1.532
		c-1.13-2.802-2.274-5.49-3.412-8.107c-0.217-0.453-0.42-0.917-0.604-1.388l-2.453-5.542
		c-13.879-31.225-25.907-58.272-19.946-137.198c0.911-12.297,11.636-21.528,23.935-20.617c12.297,0.917,21.528,11.637,20.617,23.933
		c-1.445,19.068-1.697,34.532-1.071,47.477c12.717-47.358,30.556-90.94,55.747-128.477
		c41.698-62.135,102.723-107.088,192.473-124.563c212.753-41.442,283.671,72.757,339.193,162.18
		c20.225,32.589,38.123,61.398,58.45,73.077c25.824,14.835,45.379,21.935,59.858,23.864c3.425,0.453,6.43,0.618,9.038,0.52
		c3.577-0.803,6.356-1.323,8.168-1.63c2.212-0.903,3.68-2.193,4.517-3.633l-0.061-0.038c0.779-1.365,1.266-2.876,1.47-4.403
		c0.33-2.493-0.368-4.984-2.104-7.383c-3.255-4.37-9.023-8.74-17.367-13.002l-0.033,0.07c-33.255-16.978-55.749-35.38-74.541-57.798
		c-18.07-21.552-32.022-46.157-49.067-76.88c-11.292-20.357-25.163-43.426-44.428-68.428c-19.29-25.03-44.113-52.182-77.381-80.811
		c-71.163-61.228-148.998-93.557-239.523-95.555c-84.307-1.852-180.339,22.295-292.808,73.55
		c34.321,27.633,69.088,58.96,104.256,94.658c8.631,8.776,8.518,22.903-0.263,31.535c-8.778,8.632-22.905,8.513-31.532-0.265
		c-341.805-346.937-644.106-271.355-829.581-157.597c-1.063,0.788-2.201,1.483-3.421,2.078
		c-118.515,73.545-188.367,161.948-188.886,162.595c-7.715,9.597-21.76,11.127-31.36,3.407c-9.596-7.715-11.122-21.76-3.407-31.36
		c0.434-0.538,46.63-58.928,127.692-122.078c-21.459-1.914-45.024-7.225-68.985-18.368l-0.077-0.038
		c-2.621-1.177-6.656-3.18-15.69-7.503c-78.193-37.543-235.874-113.248-434.956,8.065
		C924.255,871.215,950.754,938.377,851.67,1028.026c-30.566,27.647-54.747,25.238-104.907,66.213
		c-31.738,25.932-13.242,25.033,14.68,22.857l0.459-0.033c26.173-2.098,54.17-9.762,62.531-12.587
		c19.473-6.6,40.502-16.715,61.474-32.116c21.209-15.575,42.416-36.585,62.031-64.86c47.094-67.877,100.48-120.463,170.681-143.977
		c70.11-23.49,155.177-17.387,264.759,32.338c61.053,27.708,97.172,61.473,117.261,96.477
		c32.122,55.956,60.921,221.031,49.138,277.81l-0.793,3.803c-18.804,90.438-60.474,290.825,103.27,427.01
		c33.223,27.633,75.798,54.455,122.76,79.687c37.285,20.042,77.277,39.02,117.538,56.603
		c2.848-120.448-87.785-196.705-52.653-332.21c3.085-11.915,15.25-19.073,27.165-15.988c11.915,3.085,19.072,15.25,15.987,27.165
		c-28.819,117.893,51.582,193.881,54.653,308.013c3.788,140.127-40.403,257.702,10.44,404.258
		c18.742,54.023,48.105,99.628,85.861,150.708c47.452,64.2,112.126,112.838,197.49,121.645l0.958,0.117
		c0.252,0,85.012,13.872,104.127-110.98l-41.017-38.107c-4.673,7.577-11.585,15.953-22.05,24.585
		c-8.702,7.177-20.527,12.08-33.789,12.68c-9.945,0.454-20.698-1.483-31.446-6.698c-9.911-4.805-19.865-12.453-29.086-23.636
		c-22.021-26.712-40.89-76.053-44.75-160.635c-4.337-94.97,1.29-214.342,18.742-321.84c2.447-15.062,5.13-29.907,8.055-44.443
		c0.118-0.775,0.269-1.545,0.463-2.3c22.615-111.133,98.48-218.145,106.947-286.276c3.386-27.24-4.707-41.763-14.363-48.307
		c-10.178-6.898-12.837-20.75-5.939-30.922c6.898-10.177,20.75-12.835,30.922-5.938c21.353,14.461,39.698,42.751,33.746,90.586
		c-9.19,73.95-75.769,157.053-98.901,250.78C2397.331,1725.813,2543.139,1589.929,2543.139,1370.008"/>
	<path style="fill:#FFFFFF;" d="M3047.952,1269.808c-7.856-9.507-6.533-23.59,2.972-31.45c9.499-7.862,23.588-6.535,31.449,2.967
		c0.062,0.08,9.425,11.13,22.182,31.908c15.891-55.223,50.621-88.697,83.791-108.785c-7.639-3.595-15.713-7.823-24.25-12.722
		c-30.283-17.397-50.886-50.575-74.183-88.097c-48.402-77.957-110.215-177.505-292.889-141.922
		c-76.672,14.925-128.576,52.99-163.818,105.515c-15.997,23.835-28.733,50.768-38.905,79.99
		c59.47-59.57,155.168-122.4,288.466-110.598c12.299,1.062,21.416,11.9,20.353,24.198c-1.058,12.297-11.902,21.41-24.198,20.352
		c-177.033-15.67-279.123,119.58-309.458,167.433c-0.747,4.527-1.46,9.08-2.135,13.658c10.899,28.63,20.537,68.338,20.537,147.751
		c0,178.37-81.109,267.317-140.235,332.15l-8.853,9.727c-3.817,91.36,56.376,118.473,137.456,154.957
		c9.696,4.355,19.767,8.89,34.54,15.803c54.294,25.388,87.1,58.983,106.739,88.028c52.163-139.02,206.178-264.845,266.471-314.092
		c10.03-8.193,17.276-14.108,20.295-17.032c2.065-1.998,6.203-5.732,11.098-10.167c35.593-32.16,123.298-111.43,104.814-197.023
		C3097.785,1328.608,3048.089,1269.978,3047.952,1269.808"/>
	<path style="fill:#FFFFFF;" d="M1479.169,3150.377c-5.914-6.458-12.287-10.682-18.5-12.497c-5.065-1.483-10.13-1.29-14.683,0.7
		c-5.66,2.48-11.093,7.785-15.667,16.177c-40.839,74.867,25.097,110.697,88.558,111.312
		C1504.166,3233.909,1502.083,3175.44,1479.169,3150.377"/>
	<path style="fill:#FFFFFF;" d="M1385.901,3144.254c1.558-3.582,3.307-7.185,5.286-10.818c9.6-17.598,22.512-29.41,36.977-35.735
		c14.352-6.288,29.826-7.045,44.907-2.628c10.71,3.128,21.121,8.902,30.623,17.142c4.81-36.28,13.761-73.055,24.612-107.566
		c18.248-58.043,21.922-124.417,11.444-204.907c-10.706-82.21-36.16-179.112-75.903-296.626
		c-77.853-230.197,8.636-456.198,20.069-484.285c6.85-56.943,17.896-108.118,27.77-146.613c-1.582,0.592-3.18,1.158-4.789,1.702
		c-24.615,22.733-170.537,169.298-138.747,422.948c0.18,0.902,0.311,1.823,0.383,2.745c8.295,63.84,27.822,134.4,63.359,211.46
		c5.154,11.197,0.27,24.458-10.923,29.612c-11.192,5.155-24.459,0.27-29.612-10.923c-22.138-47.995-38.395-93.688-49.867-137.055
		c-19.272,81.487-35.158,211.38,12.387,336.463c53.598,140.99,43.47,239.462,35.273,319.19
		C1385.494,3083.947,1382.244,3115.515,1385.901,3144.254"/>
	<path style="fill:#FFFFFF;" d="M1703.631,3322.59c-1.705-7.1-3.443-14.112-5.201-20.938c-3.363-13.077-7.087-26.266-11.13-39.023
		c-4.568-14.413-11.868-25.928-20.593-34.653c-9.662-9.657-21.115-15.963-32.5-19.063c-10.81-2.933-21.335-2.982-29.892-0.268
		c-4.37,1.378-8.125,3.505-10.913,6.292c-19.267,19.267-9.132,75.945,30.033,89.76c11.446,4.038,24.136,7.602,37.671,10.592
		C1674.448,3318.235,1688.734,3320.692,1703.631,3322.59"/>
	<path style="fill:#FFFFFF;" d="M1889.966,3282.444c11.197-23.127,10.923-48.072-17.333-65.708
		c-13.988-8.735-32.581-13.262-52.989-11.91c-54.908,3.638-80.088,33.015-88.957,46.771c3.448,11.107,7.138,24.458,10.9,39.047
		c3.036,11.773,5.972,23.897,8.748,35.925c17.439,0.77,35.217,0.76,52.918-0.103
		C1848.038,3324.269,1868.561,3326.63,1889.966,3282.444"/>
	<path style="fill:#FFFFFF;" d="M2006.504,3216.444c-36.309-1.233-57.373,22.373-65.291,33.59
		c1.256,17.462-2.727,34.7-10.092,50.467C1971.576,3283.165,1998.481,3259.752,2006.504,3216.444"/>
	<path style="fill:#FFFFFF;" d="M1923.396,3203.324c18.283-16.872,46.967-33.898,87.01-31.437
		c-0.752-45.809-16.591-82.957-33.684-123.052l-15.855-37.153c-35.604-82.705-101.164-235.025-94.608-406.478
		c0.477-12.492,1.02-23.769,1.589-35.627c7.185-150.355,18.613-389.14-171.564-543.756c-9.548-7.767-10.998-21.803-3.232-31.355
		c7.764-9.548,21.804-10.998,31.357-3.232c207.67,168.837,195.59,421.403,187.983,580.436c-0.608,12.945-1.208,25.327-1.581,35.112
		c-6.176,161.267,56.871,307.723,91.104,387.26l9.364,21.887l6.496,15.43l0.505,1.197c6.908-48.775,18.468-97.385,29.329-143.055
		c9.752-41.008,18.94-79.583,23.216-111.705c14.348-107.608,26.457-233.442,30.332-275.102
		c-40.385-24.775-74.495-58.413-102.965-96.937c-72.802-98.498-108.433-229.411-117.85-322.543
		c-6.76-66.87-0.284-121.418,5.626-171.18c1.115-9.373,2.201-18.562,3.165-27.615c-46.087-19.729-92.304-41.367-135.263-64.46
		c-49.13-26.403-94.153-54.858-130.102-84.755c-4.099-3.42-8.055-6.875-11.933-10.357c-7.932,22.532-20.155,54.396-37.138,91.163
		c-3.459,9.92-33.572,98.542-46.772,209.153c-0.038,1.313-0.193,2.637-0.468,3.955c-7.733,67.205-9.09,142.205,5.569,212.47
		c2.505,12.062-5.235,23.878-17.291,26.382c-12.059,2.503-23.877-5.235-26.38-17.292c-3.01-14.428-5.386-29.022-7.209-43.7
		c-10.437,80.612-10.177,180.812,23.982,281.806c40.607,120.065,66.693,219.703,77.82,305.187
		c11.354,87.193,7.172,159.728-13.012,223.957c-18.518,58.917-31.18,124.203-24.856,178.795c0.451,2.82,0.842,5.692,1.177,8.622
		l0.015,0.103l0.183,1.158c3.049-8.655,7.654-16.622,14.325-23.292c7.975-7.975,17.943-13.777,29.083-17.297
		c16.583-5.262,35.972-5.442,55.044-0.26c18.497,5.027,36.96,15.142,52.418,30.6c3.647,3.648,7.129,7.588,10.398,11.835
		c19.667-20.665,53.712-44.31,108.124-47.92c29.9-1.978,57.773,5.052,79.373,18.548
		C1906.907,3185.499,1916.12,3193.76,1923.396,3203.324"/>
	<path style="fill:#FFFFFF;" d="M2238.117,3326.262c5.905-33.53,1.72-60.51-8.106-81.09c-7.824-16.393-19.233-28.762-31.805-37.092
		c-12.278-8.14-25.483-12.438-37.323-12.868c-9.76-0.355-18.227,1.913-23.551,6.812
		C2067.401,3266.375,2170.351,3320.97,2238.117,3326.262"/>
	<path style="fill:#FFFFFF;" d="M2464.493,3275.895l3.193-1.9c21.283-13.28,36.728-30.208,46.908-49.743
		c7.81-15.008,24.184-66.552,3.393-77.408c-0.241-0.128-0.615-0.175-1.147-0.123
		C2462.517,3152.38,2468.965,3243.329,2464.493,3275.895"/>
	<path style="fill:#FFFFFF;" d="M2283.977,3272.697c2.156,16.417,2.099,34.463-0.747,54.098
		c46.465-2.292,92.825-12.827,131.532-27.43c0.473-0.198,0.955-0.397,1.447-0.572c5.74-40.777,18.047-103.8-45.396-99.647
		c-28.107,1.842-47.963,7.332-61.98,13.975C2268.213,3232.374,2279.852,3241.185,2283.977,3272.697"/>
	<path style="fill:#FFFFFF;" d="M2434.304,3172.95c8.362-19.086,21.534-39.373,42.307-54.955
		c13.015-9.76,24.925-14.513,35.683-15.642c3.679-0.388,7.2-0.373,10.563,0.008c-8.112-32.928-23.008-67.412-43.573-101.485
		l-3.51-5.753c-60.391-96.912-44.466-256.54-30.667-394.8c4.424-44.353,8.638-86.452,9.909-122.655l0.008-0.255
		c0.661-18.592,1.777-38.992,3.029-62.023c9.166-168.618,25.985-477.84-87.793-643.964c-59.905,38.4-137.944,69.283-167.48,80.348
		c-1.974,10.417-3.837,21-5.574,31.715c-16.961,104.47-22.427,220.468-18.214,312.755c3.35,73.375,17.855,113.92,34.622,134.258
		c4.766,5.783,9.548,9.558,14.063,11.75c3.691,1.792,7.135,2.467,10.126,2.333c3.108-0.136,5.683-1.128,7.413-2.55
		c13.398-11.05,15.75-20.943,16.979-26.14c9.473-39.847,34.409-23.963,55.81-4.078l56.717,52.697
		c5.462,4.663,8.585,11.868,7.71,19.535c-21.005,183.02-156.052,161.132-156.438,161.08c-29.538-3.146-56.874-10.285-82.13-20.685
		c-5.078,53.23-16.105,163.673-28.833,259.12c-4.767,35.793-14.055,74.783-23.911,116.25
		c-25.733,108.198-55.648,234.003-12.443,328.535c2.431-21.17,10.321-42.51,28.431-59.168c14.262-13.125,34.038-19.29,55.351-18.52
		c19.763,0.718,41.163,7.473,60.388,20.212c11.224,7.435,21.789,16.937,30.93,28.455c18.675-19.941,52.692-40.691,114.236-44.731
		C2397.292,3152.682,2418.808,3160.052,2434.304,3172.95"/>
	<path style="fill-rule:evenodd;clip-rule:evenodd;" d="M1816.89,1379.013c0,0,11.881-57.26,0.586-113.675
		c-14.428-72.018-69.218-141.042-136.428-64.592c-16.463,18.737-34.185,38.869-60.41,43.743c0,0,40.185,9.897,54.16,35.523
		C1688.773,1305.638,1707.991,1378.431,1816.89,1379.013"/>
	<path style="fill-rule:evenodd;clip-rule:evenodd;" d="M1667.196,1173.468c0,0,35.523-56.485,85.022-64.64
		c49.502-8.155,46.591,51.827,111.806,64.058c0,0-27.084,10.484-69.008-17.178C1753.09,1128.043,1720.195,1121.06,1667.196,1173.468
		"/>
	<path style="fill-rule:evenodd;clip-rule:evenodd;" d="M2266.024,1379.013c0,0-11.886-57.26-0.585-113.675
		c14.424-72.018,69.217-141.042,136.427-64.592c16.465,18.737,34.185,38.869,60.406,43.743c0,0-40.181,9.897-54.156,35.523
		C2394.135,1305.638,2374.923,1378.431,2266.024,1379.013"/>
	<path style="fill-rule:evenodd;clip-rule:evenodd;" d="M2428.214,1182.363c0,0-35.523-56.48-85.022-64.633
		c-49.501-8.155-46.591,51.826-111.806,64.053c0,0,27.084,10.488,69.008-17.173
		C2342.319,1136.943,2375.216,1129.96,2428.214,1182.363"/>
</g>
</svg>
